<?xml version="1.0" standalone="no"?><svg xmlns="http://www.w3.org/2000/svg" viewBox="0 0 1440 320"><path fill="#0099ff" fill-opacity="1" d="M0,128L7.3,149.3C14.5,171,29,213,44,213.3C58.2,213,73,171,87,144C101.8,117,116,107,131,90.7C145.5,75,160,53,175,80C189.1,107,204,181,218,192C232.7,203,247,149,262,138.7C276.4,128,291,160,305,144C320,128,335,64,349,69.3C363.6,75,378,149,393,149.3C407.3,149,422,75,436,37.3C450.9,0,465,0,480,21.3C494.5,43,509,85,524,101.3C538.2,117,553,107,567,117.3C581.8,128,596,160,611,181.3C625.5,203,640,213,655,181.3C669.1,149,684,75,698,48C712.7,21,727,43,742,58.7C756.4,75,771,85,785,112C800,139,815,181,829,186.7C843.6,192,858,160,873,160C887.3,160,902,192,916,224C930.9,256,945,288,960,298.7C974.5,309,989,299,1004,298.7C1018.2,299,1033,309,1047,277.3C1061.8,245,1076,171,1091,154.7C1105.5,139,1120,181,1135,181.3C1149.1,181,1164,139,1178,144C1192.7,149,1207,203,1222,192C1236.4,181,1251,107,1265,112C1280,117,1295,203,1309,240C1323.6,277,1338,267,1353,266.7C1367.3,267,1382,277,1396,282.7C1410.9,288,1425,288,1433,288L1440,288L1440,0L1432.7,0C1425.5,0,1411,0,1396,0C1381.8,0,1367,0,1353,0C1338.2,0,1324,0,1309,0C1294.5,0,1280,0,1265,0C1250.9,0,1236,0,1222,0C1207.3,0,1193,0,1178,0C1163.6,0,1149,0,1135,0C1120,0,1105,0,1091,0C1076.4,0,1062,0,1047,0C1032.7,0,1018,0,1004,0C989.1,0,975,0,960,0C945.5,0,931,0,916,0C901.8,0,887,0,873,0C858.2,0,844,0,829,0C814.5,0,800,0,785,0C770.9,0,756,0,742,0C727.3,0,713,0,698,0C683.6,0,669,0,655,0C640,0,625,0,611,0C596.4,0,582,0,567,0C552.7,0,538,0,524,0C509.1,0,495,0,480,0C465.5,0,451,0,436,0C421.8,0,407,0,393,0C378.2,0,364,0,349,0C334.5,0,320,0,305,0C290.9,0,276,0,262,0C247.3,0,233,0,218,0C203.6,0,189,0,175,0C160,0,145,0,131,0C116.4,0,102,0,87,0C72.7,0,58,0,44,0C29.1,0,15,0,7,0L0,0Z"></path></svg>